<svg width="100%" viewBox="0 0 680 400" role="img" xmlns="http://www.w3.org/2000/svg">
<title>SPM Executive Dashboard</title>
<style>.bg{fill:#1a1a2e}.t-w{fill:#fff;font-family:monospace}.t-t{fill:#00c9a7;font-family:monospace}.t-d{fill:#8892a4;font-family:monospace}.t-r{fill:#e94560;font-family:monospace}.t-y{fill:#f5a623;font-family:monospace}</style>
<rect width="680" height="400" class="bg"/>
<text x="340" y="30" class="t-t" font-size="14" font-weight="bold" text-anchor="middle">SPM Executive Dashboard</text>
<text x="340" y="48" class="t-d" font-size="10" text-anchor="middle">They say they want data. They actually want to stop being surprised.</text>
<rect x="40" y="58" width="600" height="260" rx="10" fill="#0d1b2e" stroke="#00c9a7" stroke-width="1.5"/>
<rect x="40" y="58" width="600" height="28" rx="10" fill="#0f3460"/>
<rect x="40" y="74" width="600" height="12" fill="#0f3460"/>
<text x="60" y="76" class="t-t" font-size="10">Portfolio Overview — Q3 2025</text>
<rect x="55" y="95" width="120" height="55" rx="6" fill="#16213e" stroke="#00c9a7" stroke-width="1"/>
<text x="115" y="118" class="t-t" font-size="22" font-weight="bold" text-anchor="middle">14</text>
<text x="115" y="134" class="t-d" font-size="9" text-anchor="middle">Active Projects</text>
<rect x="185" y="95" width="120" height="55" rx="6" fill="#16213e" stroke="#4ade80" stroke-width="1"/>
<text x="245" y="118" fill="#4ade80" font-family="monospace" font-size="22" font-weight="bold" text-anchor="middle">$2.4M</text>
<text x="245" y="134" class="t-d" font-size="9" text-anchor="middle">Expected Value</text>
<rect x="315" y="95" width="120" height="55" rx="6" fill="#16213e" stroke="#f5a623" stroke-width="1"/>
<text x="375" y="118" class="t-y" font-size="22" font-weight="bold" text-anchor="middle">3</text>
<text x="375" y="134" class="t-d" font-size="9" text-anchor="middle">At Risk</text>
<rect x="445" y="95" width="120" height="55" rx="6" fill="#16213e" stroke="#e94560" stroke-width="1"/>
<text x="505" y="118" class="t-r" font-size="22" font-weight="bold" text-anchor="middle">1</text>
<text x="505" y="134" class="t-d" font-size="9" text-anchor="middle">Over Budget</text>
<rect x="55" y="162" width="510" height="140" rx="6" fill="#16213e"/>
<text x="70" y="180" class="t-t" font-size="10">Project Comparison</text>
<line x1="55" y1="186" x2="565" y2="186" stroke="#0f3460" stroke-width="1"/>
<text x="70" y="200" class="t-d" font-size="9">Project</text>
<text x="220" y="200" class="t-d" font-size="9">Value</text>
<text x="300" y="200" class="t-d" font-size="9">Risk</text>
<text x="460" y="200" class="t-d" font-size="9">Status</text>
<text x="70" y="220" class="t-w" font-size="9">CRM Migration</text><text x="220" y="220" fill="#4ade80" font-family="monospace" font-size="9">$800K</text><text x="300" y="220" class="t-t" font-size="9">Low</text><rect x="458" y="211" width="50" height="14" rx="3" fill="#064e3b"/><text x="483" y="222" class="t-t" font-size="8" text-anchor="middle">On Track</text>
<text x="70" y="240" class="t-w" font-size="9">ERP Upgrade</text><text x="220" y="240" fill="#4ade80" font-family="monospace" font-size="9">$1.2M</text><text x="300" y="240" class="t-y" font-size="9">Medium</text><rect x="458" y="231" width="50" height="14" rx="3" fill="#3d2b00"/><text x="483" y="242" class="t-y" font-size="8" text-anchor="middle">At Risk</text>
<text x="70" y="260" class="t-w" font-size="9">Portal Redesign</text><text x="220" y="260" fill="#4ade80" font-family="monospace" font-size="9">$400K</text><text x="300" y="260" class="t-t" font-size="9">Low</text><rect x="458" y="251" width="50" height="14" rx="3" fill="#064e3b"/><text x="483" y="262" class="t-t" font-size="8" text-anchor="middle">On Track</text>
<text x="70" y="280" class="t-w" font-size="9">Legacy Sunset</text><text x="220" y="280" fill="#4ade80" font-family="monospace" font-size="9">$200K</text><text x="300" y="280" class="t-r" font-size="9">High</text><rect x="458" y="271" width="50" height="14" rx="3" fill="#4c0519"/><text x="483" y="282" class="t-r" font-size="8" text-anchor="middle">Over Budget</text>
<rect x="40" y="328" width="600" height="44" rx="6" fill="#064e3b" stroke="#00c9a7" stroke-width="1"/>
<text x="340" y="347" class="t-t" font-size="11" font-weight="bold" text-anchor="middle">Visible problems can be managed. Invisible ones cannot.</text>
<text x="340" y="363" class="t-d" font-size="9" text-anchor="middle">SPM gives leadership not just data — but the end of being surprised.</text>
<text x="340" y="392" fill="#00c9a7" font-family="monospace" font-size="11" text-anchor="middle">When it works, it works like a charm.</text>
</svg>
